<svg xmlns="http://www.w3.org/2000/svg" viewBox="0 0 24 24">
  <path fill="#4285F4" d="M22.56 12.25c0-.78-.07-1.53-.2-2.25H12v4.26h5.92c-.26 1.37-1.04 2.53-2.21 3.31v2.77h3.58c2.08-1.92 3.27-4.74 3.27-8.09Z"/>
  <path fill="#34A853" d="M12 23c2.97 0 5.46-.98 7.28-2.66l-3.58-2.77c-.98.66-2.24 1.06-3.7 1.06-2.84 0-5.25-1.92-6.11-4.5H2.18v2.84A10.99 10.99 0 0 0 12 23Z"/>
  <path fill="#FBBC05" d="M5.89 14.13A6.56 6.56 0 0 1 5.54 12c0-.74.13-1.46.35-2.13V7.03H2.18A10.99 10.99 0 0 0 1 12c0 1.77.42 3.45 1.18 4.97l3.71-2.84Z"/>
  <path fill="#EA4335" d="M12 5.38c1.62 0 3.06.56 4.21 1.64l3.15-3.15C17.45 2.09 14.97 1 12 1A10.99 10.99 0 0 0 2.18 7.03l3.71 2.84c.86-2.58 3.27-4.49 6.11-4.49Z"/>
</svg>
